<?xml version="1.0" encoding="UTF-8"?><svg id="Layer_2" xmlns="http://www.w3.org/2000/svg" viewBox="0 0 310.746 455.463"><defs><style>.cls-1{fill:#3ac0c4;}</style></defs><g id="Layer_1-2"><g><g><path class="cls-1" d="M302.172,399.04c-6.238-21.318-8.357-42.973-7.045-65.168,.684-11.579,.466-23.346-.76-34.878-2.86-26.903-12.379-51.662-26.646-74.548-10.39-16.666-22.475-31.841-38.491-43.695-14.673-10.86-28.023-23.238-38.909-38.048-12.634-17.189-15.468-35.42-5.862-55.02,2.974-6.069,5.862-12.192,8.479-18.422,2.663-6.34,4.083-12.989,2.064-19.809-4.675-15.788-22.244-29.434-44.523-21.122-1.868,.697-3.277,.886-5.231-.002-8.606-3.908-16.859-3.031-24.386,2.776-2.539,1.959-4.802,4.28-7.155,6.474-6.147,5.733-12.274,11.487-18.875,17.67-.19-1.809-.336-2.977-.432-4.149-1.51-18.414-13.796-31.697-31.816-35.1-16.382-3.093-29.142,8.825-28.747,24.172,.595,23.085,.204,46.197,.055,69.296-.012,1.853-.972,4.062-2.207,5.482-4.952,5.693-10.14,11.184-15.33,16.666-6.007,6.346-9.174,13.757-8.92,22.567,.33,11.431,.178,22.898,1.041,34.288,1.089,14.375,3.05,28.682,4.488,43.033,.23,2.298,.147,4.827-.576,6.986-3.342,9.984-7.249,19.785-10.354,29.837-1.407,4.555-2.24,9.6-1.9,14.319,.726,10.056,6.09,17.653,14.72,22.838,1.918,1.152,2.269,2.335,1.84,4.593-.654,3.439-.994,7.074-.643,10.542,1.048,10.345,6.901,17.668,15.287,23.399,39.652,27.101,79.238,54.3,118.884,81.411,2.992,2.046,4.626,4.517,4.725,8.218,.125,4.659,1.738,8.892,4.54,12.645,3.698,4.952,8.881,7.508,14.657,9.111h136.545v-25.328c-2.828-10.349-5.504-20.743-8.516-31.038ZM60.231,30.967c10.88,1.701,18.589,10.608,19.231,22.224,.012,.221,.024,.443,.022,.665-.049,5.206,1.275,10.973-.55,15.456-1.718,4.221-6.727,7.119-10.341,10.544-5.472,5.185-10.987,10.326-16.491,15.478-.775,.726-1.594,1.406-2.833,2.493-.087-1.625-.193-2.678-.194-3.731-.011-17.857-.017-35.713-.005-53.57,.005-7.61,3.668-10.729,11.159-9.558ZM27.794,141.525c19.368-22.092,41.567-41.265,62.808-61.425,12.799-12.147,25.671-24.217,38.534-36.295,3.804-3.573,6.804-3.923,11.022-1.209,.99,.637,1.697,1.783,2.4,2.789,7.302,10.441,6.297,22.184-3.056,30.962-19.902,18.68-39.961,37.194-59.963,55.768-2.033,1.887-4.049,3.803-6.197,5.554-4.698,3.831-8.587,8.095-8.394,14.678-15.995,3.221-26.479,11.897-31.493,27.028-2.537,7.654-5.417,15.195-8.459,23.672-.376-1.491-.649-2.112-.675-2.743-.614-14.972-1.196-29.946-1.799-44.918-.216-5.381,1.676-9.759,5.271-13.86Zm74.442-8.145v18.51h-21.842c7.201-6.522,14.068-12.742,20.936-18.962,.301,.151,.603,.301,.905,.452ZM23.78,289.018c-.359,1.017-.767,2.016-1.154,3.029-6.111-2.905-9.221-9.787-6.977-16.625,3.765-11.473,7.931-22.815,11.964-34.199,6.809-19.218,13.628-38.434,20.478-57.637,3.814-10.692,11.673-16.221,22.943-16.224,20.639-.006,41.278,.039,61.916-.043,3.263-.013,6,.834,8.649,2.738,12.07,8.674,24.233,17.217,36.336,25.845,3.921,2.795,4.34,5.632,1.324,9.354-3.39-2.425-6.839-4.806-10.195-7.311-7.75-5.783-16.43-8.45-26.091-8.399-18.752,.099-37.506-.067-56.257,.06-15.493,.105-27.363,6.792-34.741,20.555-2.229,4.159-3.484,8.852-5.073,13.341-7.727,21.833-15.415,43.679-23.121,65.519Zm263.679,151.133c-36.74,.053-73.48,.042-110.22,.009-3.841-.003-6.901-2.697-7.058-6.572-.398-9.863-5.247-16.573-13.303-22.04-39.195-26.6-78.191-53.493-117.26-80.277-8.685-5.954-10.545-11.678-7.012-21.714,10.38-29.485,20.759-58.971,31.147-88.454,3.757-10.663,11.699-16.307,22.914-16.309,18.869-.003,37.739,.028,56.608-.017,6.194-.014,11.737,1.642,16.783,5.341,10.381,7.609,20.887,15.047,31.332,22.567,5.338,3.843,5.713,7.095,1.431,12.102-7.297,8.533-19.286,10.613-28.931,4.787-5.028-3.036-9.872-6.387-14.709-9.727-4.728-3.266-9.869-4.848-15.624-4.756-7.102,.113-14.207-.003-21.311,.034-10.589,.055-18.575,5.941-22.109,15.983-3.718,10.566-7.768,21.037-8.905,32.299-1.073,10.634-.059,20.831,8.425,28.512,2.881,2.608,6.556,4.512,10.146,6.111,3.714,1.654,7.517-.181,9.168-3.692,1.695-3.604,.634-8.206-3.065-9.762-10.315-4.338-11.103-12.489-9.349-21.011,2.024-9.829,5.441-19.387,8.534-28.972,.972-3.013,3.841-4.273,6.928-4.311,7.769-.095,15.541-.133,23.307,.035,1.538,.034,3.197,.862,4.555,1.716,5.258,3.307,10.359,6.862,15.621,10.161,17.717,11.109,40.721,5.849,51.955-11.814,5.89-9.26,4.084-20.885-4.477-27.855-3.507-2.855-7.247-5.424-10.534-7.866,1.301-3.599,3.044-6.811,3.576-10.212,1.311-8.393-1.696-15.365-8.59-20.338-12.868-9.283-25.858-18.395-38.807-27.564-4.309-3.051-9.175-4.362-14.403-4.396-5.316-.035-10.633-.008-16.105-.008-1.387-9.174-1.132-18.103-.397-27.095,.472-5.772,2.766-10.017,7.113-13.871,8.468-7.507,16.501-15.509,24.659-23.363,13.114-12.625,16.224-27.692,9.294-44.642-.166-.405-.286-.829-.503-1.463,6.483-1.953,12.111-.521,16.945,3.883,4.598,4.188,7.048,9.284,4.535,15.505-2.488,6.16-5.278,12.202-8.068,18.234-4.218,9.124-7.578,18.49-8.076,28.633-.867,17.68,6.025,32.653,16.429,46.354,10.627,13.993,23.29,26.02,37.312,36.413,13.884,10.291,25.046,22.82,34.442,37.125,19.203,29.236,29.567,61.146,28.855,96.342-.188,9.321-1.001,18.634-1.004,27.951-.006,20.048,4.338,39.403,9.951,58.529,1.904,6.488,3.581,13.043,5.282,19.588,1.439,5.541-1.737,9.881-7.431,9.889Z"/><path class="cls-1" d="M310.746,455.463l-136.617-.002c-6.77-1.879-11.437-4.78-14.688-9.132-2.899-3.882-4.43-8.148-4.551-12.678-.093-3.492-1.543-6.013-4.7-8.172-18.768-12.834-37.836-25.903-56.277-38.542-20.514-14.06-41.725-28.597-62.607-42.869-9.353-6.392-14.361-14.06-15.311-23.441-.314-3.106-.098-6.658,.643-10.559,.445-2.34,.004-3.441-1.813-4.533-4.399-2.643-7.878-5.876-10.343-9.61-2.569-3.892-4.051-8.358-4.405-13.273-.396-5.481,.816-10.824,1.902-14.34,1.82-5.892,3.951-11.796,6.011-17.505,1.455-4.032,2.96-8.202,4.343-12.334,.808-2.413,.758-5.118,.573-6.962-.54-5.39-1.164-10.864-1.767-16.158-1.003-8.8-2.04-17.9-2.721-26.877-.585-7.724-.706-15.613-.822-23.242-.055-3.622-.112-7.368-.219-11.048-.125-4.324,.587-8.439,2.116-12.231,1.479-3.668,3.773-7.159,6.819-10.377,4.805-5.075,10.251-10.828,15.328-16.664,1.301-1.494,2.182-3.682,2.194-5.445,.03-4.562,.069-9.201,.107-13.687,.155-18.231,.315-37.082-.162-55.608-.195-7.559,2.826-14.559,8.288-19.206,5.52-4.698,12.808-6.483,20.528-5.024,8.889,1.679,16.542,5.807,22.131,11.938,5.627,6.174,8.992,14.2,9.731,23.213,.063,.772,.147,1.533,.253,2.496,.051,.462,.106,.968,.167,1.538,1.885-1.766,3.733-3.497,5.552-5.203,4.564-4.278,8.875-8.319,13.24-12.389,.595-.555,1.194-1.128,1.774-1.681,1.714-1.638,3.486-3.331,5.385-4.796,7.516-5.799,15.74-6.735,24.444-2.783,1.956,.889,3.383,.673,5.188,0,12.265-4.575,21.76-2.081,27.567,.816,8.087,4.036,14.454,11.641,17.03,20.343,1.769,5.974,1.113,12.281-2.066,19.847-2.28,5.428-4.895,11.111-8.48,18.425-4.686,9.562-6.504,19.111-5.404,28.382,1.058,8.91,4.846,17.852,11.26,26.579,10.03,13.646,22.754,26.087,38.897,38.035,14.26,10.555,26.495,24.444,38.506,43.711,7.303,11.714,13.226,23.752,17.606,35.779,4.615,12.672,7.659,25.724,9.049,38.793,1.203,11.321,1.459,23.058,.76,34.888-.663,11.209-.43,22.28,.691,32.903,1.155,10.938,3.292,21.787,6.352,32.245,2.072,7.082,4.017,14.33,5.897,21.339,.854,3.181,1.736,6.47,2.619,9.7l.002,.015v25.385Zm-136.594-.114h136.48v-25.263c-.882-3.228-1.764-6.515-2.617-9.693-1.88-7.009-3.825-14.255-5.897-21.337-3.062-10.465-5.2-21.321-6.356-32.266-1.122-10.629-1.354-21.706-.692-32.921,.698-11.823,.443-23.554-.759-34.868-1.389-13.061-4.431-26.104-9.042-38.767-4.377-12.019-10.297-24.049-17.596-35.757-12.002-19.254-24.228-33.134-38.476-43.68-16.152-11.955-28.884-24.404-38.921-38.06-6.426-8.743-10.222-17.703-11.282-26.633-1.104-9.294,.718-18.864,5.414-28.445,3.584-7.312,6.198-12.993,8.478-18.42,3.168-7.54,3.823-13.823,2.062-19.771-2.568-8.672-8.912-16.251-16.971-20.273-5.787-2.888-15.252-5.374-27.476-.811-1.833,.683-3.284,.901-5.275-.003-8.663-3.935-16.848-3.001-24.327,2.769-1.894,1.461-3.664,3.153-5.376,4.788-.58,.554-1.18,1.127-1.775,1.683-4.364,4.07-8.675,8.111-13.239,12.389-1.847,1.731-3.721,3.488-5.636,5.281l-.084,.079-.012-.114c-.065-.616-.125-1.158-.179-1.651-.106-.964-.19-1.725-.254-2.499-.736-8.987-4.092-16.99-9.701-23.145-5.572-6.113-13.203-10.229-22.068-11.903-7.682-1.452-14.938,.325-20.432,4.999-5.435,4.624-8.441,11.592-8.247,19.116,.478,18.527,.318,37.379,.162,55.612-.038,4.486-.077,9.125-.107,13.687-.012,1.787-.905,4.005-2.222,5.519-5.079,5.838-10.526,11.591-15.331,16.668-3.036,3.208-5.323,6.687-6.796,10.341-1.523,3.777-2.232,7.877-2.108,12.184,.106,3.681,.164,7.427,.219,11.05,.117,7.627,.237,15.514,.822,23.235,.68,8.975,1.717,18.074,2.72,26.873,.604,5.294,1.227,10.768,1.767,16.159,.186,1.855,.237,4.578-.578,7.01-1.384,4.133-2.889,8.303-4.344,12.336-2.06,5.708-4.19,11.61-6.01,17.5-1.083,3.507-2.291,8.835-1.897,14.298,.353,4.895,1.829,9.342,4.386,13.218,2.455,3.72,5.922,6.941,10.306,9.575,1.869,1.123,2.323,2.254,1.867,4.653-.74,3.89-.956,7.431-.643,10.526,.947,9.346,5.939,16.986,15.262,23.358,20.881,14.272,42.094,28.81,62.607,42.869,18.441,12.638,37.509,25.707,56.277,38.541,3.191,2.182,4.656,4.731,4.75,8.264,.12,4.506,1.644,8.749,4.529,12.612,3.233,4.329,7.878,7.217,14.619,9.088Zm58.772-15.102c-16.94,0-35.226-.009-55.685-.028-3.968-.003-6.96-2.79-7.115-6.627-.194-4.793-1.427-8.927-3.771-12.64-2.158-3.418-5.268-6.478-9.507-9.355-28.591-19.404-57.554-39.291-85.562-58.523-10.387-7.132-21.129-14.508-31.698-21.754-4.457-3.056-7.034-6.029-8.11-9.356-1.077-3.331-.735-7.279,1.076-12.424l3.773-10.718c8.969-25.479,18.245-51.825,27.374-77.737,3.767-10.692,11.71-16.345,22.968-16.347,5.854,0,11.707,.001,17.56,.004,12.798,.005,26.031,.01,39.048-.021h.082c6.347,0,11.822,1.751,16.735,5.352,7.017,5.143,14.21,10.294,21.167,15.275,3.334,2.387,6.781,4.855,10.165,7.292,2.738,1.971,4.119,3.764,4.345,5.642,.227,1.883-.696,3.962-2.904,6.544-3.548,4.15-8.385,6.919-13.618,7.797-5.261,.885-10.723-.182-15.386-2.998-4.961-2.997-9.817-6.35-14.514-9.593l-.198-.137c-4.624-3.194-9.574-4.749-15.116-4.749-.157,0-.315,0-.474,.004-4.268,.068-8.609,.054-12.807,.038-2.787-.009-5.67-.02-8.504-.005-10.47,.055-18.509,5.866-22.055,15.945-.382,1.087-.768,2.172-1.155,3.258-3.308,9.307-6.729,18.931-7.748,29.027-.622,6.163-.423,11.039,.627,15.344,1.28,5.248,3.824,9.54,7.779,13.12,3.062,2.772,7.023,4.716,10.131,6.101,1.742,.776,3.628,.808,5.312,.09,1.625-.693,2.968-2.026,3.781-3.754,.92-1.956,1.029-4.271,.292-6.191-.627-1.634-1.778-2.842-3.328-3.494-4.818-2.027-7.839-4.961-9.232-8.97-1.117-3.213-1.166-7.172-.15-12.105,1.654-8.031,4.276-16,6.812-23.708,.568-1.727,1.156-3.513,1.723-5.27,.878-2.722,3.423-4.307,6.982-4.351,6.843-.084,14.965-.145,23.309,.035,1.283,.028,2.783,.592,4.584,1.725,2.592,1.63,5.189,3.349,7.7,5.011,2.583,1.71,5.253,3.477,7.921,5.15,8.552,5.362,18.625,7.095,28.366,4.875,9.733-2.217,18.083-8.138,23.51-16.672,2.847-4.476,3.973-9.713,3.172-14.747-.804-5.049-3.516-9.678-7.637-13.033-2.432-1.98-4.96-3.81-7.405-5.581-1.091-.79-2.12-1.536-3.127-2.283l-.034-.026,.015-.04c.415-1.147,.877-2.263,1.325-3.342,.97-2.339,1.887-4.548,2.248-6.859,1.295-8.291-1.667-15.305-8.567-20.283-9.637-6.953-19.507-13.924-29.051-20.666-3.253-2.298-6.506-4.596-9.757-6.897-4.059-2.875-8.894-4.35-14.37-4.386-3.692-.024-7.306-.019-11.131-.013-1.646,.002-3.303,.005-4.973,.005h-.049l-.008-.049c-1.495-9.892-1.04-19.254-.397-27.109,.463-5.656,2.663-9.946,7.132-13.909,6.543-5.8,12.93-11.997,19.107-17.99,1.817-1.763,3.696-3.586,5.55-5.371,13.097-12.609,16.22-27.607,9.281-44.579-.109-.267-.196-.535-.307-.875-.058-.177-.122-.371-.196-.591l-.019-.056,.057-.017c6.346-1.912,12.065-.601,17,3.895,2.469,2.249,4.134,4.609,4.95,7.014,.925,2.729,.79,5.607-.4,8.554-2.513,6.22-5.338,12.329-8.069,18.237-3.472,7.511-7.528,17.55-8.071,28.612-.414,8.445,.889,16.507,3.984,24.647,2.715,7.141,6.782,14.229,12.433,21.67,10.092,13.289,22.642,25.536,37.301,36.402,13.194,9.78,24.465,21.928,34.456,37.14,9.748,14.84,17.117,30.301,21.902,45.95,4.968,16.245,7.31,33.21,6.962,50.424-.082,4.059-.286,8.184-.483,12.173-.255,5.171-.52,10.518-.521,15.776-.007,21.791,5.313,42.717,9.948,58.512,1.725,5.879,3.29,11.911,4.803,17.745l.479,1.845c.715,2.755,.319,5.296-1.118,7.157-1.393,1.804-3.655,2.799-6.368,2.803v0c-17.229,.025-34.986,.037-54.535,.037ZM89.488,204.852h-2.821c-11.205,.002-19.11,5.628-22.86,16.271-9.13,25.911-18.404,52.257-27.374,77.736l-3.773,10.717c-3.529,10.025-1.7,15.69,6.99,21.648,10.57,7.246,21.311,14.622,31.698,21.754,28.008,19.232,56.971,39.119,85.562,58.523,4.253,2.887,7.373,5.957,9.539,9.388,2.355,3.73,3.594,7.883,3.789,12.697,.152,3.773,3.096,6.514,7.001,6.517,44.069,.04,78.061,.037,110.22-.009,2.677-.004,4.906-.984,6.277-2.759,1.415-1.832,1.804-4.338,1.098-7.058l-.479-1.845c-1.513-5.833-3.077-11.864-4.802-17.742-3.233-11.017-5.484-20.208-7.084-28.924-1.934-10.535-2.872-20.224-2.869-29.62,.001-5.261,.266-10.61,.521-15.782,.197-3.988,.401-8.113,.482-12.17,.348-17.202-1.993-34.154-6.957-50.388-4.782-15.64-12.147-31.089-21.888-45.921-9.983-15.2-21.245-27.339-34.428-37.11-14.668-10.872-27.225-23.127-37.324-36.425-5.658-7.45-9.73-14.547-12.449-21.698-3.101-8.154-4.406-16.231-3.991-24.693,.544-11.081,4.605-21.134,8.081-28.655,2.731-5.907,5.555-12.015,8.067-18.232,1.18-2.921,1.314-5.773,.398-8.474-.809-2.387-2.464-4.731-4.918-6.966-4.889-4.454-10.552-5.761-16.833-3.888,.067,.197,.124,.374,.178,.536,.11,.338,.197,.605,.305,.868,6.958,17.019,3.826,32.06-9.307,44.704-1.854,1.785-3.733,3.608-5.55,5.371-6.178,5.994-12.566,12.193-19.111,17.994-4.446,3.941-6.634,8.208-7.094,13.832-.642,7.835-1.096,17.172,.389,27.034,1.654,0,3.294-.003,4.924-.005,3.827-.006,7.439-.012,11.132,.013,5.499,.036,10.356,1.518,14.435,4.406,3.251,2.302,6.503,4.6,9.757,6.897,9.544,6.742,19.414,13.714,29.052,20.667,6.937,5.005,9.915,12.057,8.613,20.394-.364,2.324-1.283,4.54-2.256,6.885-.442,1.065-.899,2.167-1.309,3.297,.995,.739,2.014,1.477,3.091,2.257,2.446,1.772,4.975,3.603,7.41,5.585,4.143,3.373,6.87,8.026,7.678,13.104,.805,5.061-.327,10.327-3.189,14.826-5.444,8.559-13.819,14.498-23.581,16.722-9.769,2.225-19.874,.489-28.452-4.89-2.669-1.673-5.34-3.441-7.923-5.151-2.511-1.662-5.107-3.38-7.698-5.01-1.783-1.121-3.264-1.68-4.526-1.707-8.341-.18-16.462-.119-23.305-.035-3.507,.043-6.013,1.6-6.874,4.271-.567,1.757-1.155,3.543-1.723,5.27-2.535,7.704-5.157,15.671-6.809,23.695-1.011,4.912-.963,8.851,.146,12.044,1.383,3.978,4.382,6.89,9.169,8.903,1.579,.665,2.751,1.895,3.39,3.558,.748,1.949,.638,4.297-.295,6.281-.825,1.754-2.188,3.108-3.84,3.812-1.714,.73-3.633,.698-5.404-.091-3.116-1.388-7.087-3.338-10.162-6.12-3.973-3.597-6.529-7.907-7.814-13.178-1.053-4.318-1.253-9.206-.63-15.383,1.02-10.11,4.444-19.74,7.754-29.054,.386-1.085,.772-2.171,1.154-3.258,3.563-10.127,11.641-15.966,22.163-16.021,2.836-.015,5.718-.004,8.506,.005,4.197,.015,8.537,.03,12.805-.038,5.763-.092,10.882,1.468,15.657,4.766l.198,.137c4.695,3.242,9.55,6.594,14.507,9.588,4.639,2.802,10.076,3.863,15.307,2.984,5.207-.874,10.019-3.629,13.551-7.758,2.185-2.556,3.099-4.607,2.877-6.456-.222-1.844-1.587-3.611-4.298-5.562-3.384-2.436-6.831-4.904-10.165-7.291-6.956-4.981-14.15-10.132-21.168-15.276-4.892-3.586-10.345-5.33-16.667-5.33h-.082c-13.016,.031-26.25,.026-39.048,.021-4.913-.002-9.826-.004-14.739-.004ZM22.657,292.125l-.056-.026c-6.258-2.976-9.205-9.997-7.007-16.695,2.831-8.624,5.938-17.317,8.943-25.724,.993-2.777,2.019-5.649,3.021-8.477,8.261-23.317,14.576-41.092,20.477-57.637,1.901-5.328,4.827-9.415,8.697-12.148,3.864-2.728,8.675-4.113,14.301-4.114,5.872-.003,11.749,0,17.624,.003,14.518,.006,29.529,.012,44.292-.046h.073c3.265,0,6.002,.874,8.61,2.748,7.353,5.285,14.865,10.608,22.129,15.757,4.66,3.302,9.478,6.717,14.207,10.088,2.007,1.43,3.083,2.867,3.291,4.394,.206,1.514-.434,3.163-1.956,5.042l-.034,.042-.044-.031c-1.051-.752-2.127-1.513-3.167-2.248-2.317-1.639-4.714-3.335-7.03-5.063-7.562-5.643-15.999-8.389-25.779-8.389-.093,0-.184,0-.277,0-8.911,.047-17.973,.034-26.736,.021-9.676-.014-19.681-.028-29.521,.038-15.776,.107-27.448,7.013-34.691,20.525-1.65,3.077-2.784,6.504-3.88,9.818-.383,1.156-.778,2.352-1.19,3.514-5.277,14.909-10.624,30.075-15.794,44.741-2.442,6.926-4.884,13.852-7.327,20.778h0c-.243,.687-.512,1.377-.774,2.045-.128,.328-.256,.656-.381,.985l-.022,.058Zm52.386-124.707c-1.337,0-2.673,0-4.01,0-5.602,.001-10.391,1.379-14.235,4.093-3.85,2.719-6.762,6.788-8.655,12.093-5.901,16.545-12.217,34.32-20.477,57.637-1.002,2.827-2.028,5.699-3.022,8.477-3.005,8.406-6.112,17.098-8.942,25.721-2.173,6.623,.724,13.564,6.891,16.529,.119-.31,.239-.619,.36-.928,.26-.667,.53-1.356,.772-2.042h0c2.444-6.925,4.885-13.851,7.327-20.777,5.171-14.666,10.518-29.832,15.794-44.742,.411-1.161,.807-2.356,1.189-3.512,1.098-3.318,2.233-6.75,3.887-9.836,7.265-13.552,18.97-20.478,34.792-20.586,9.841-.067,19.845-.052,29.522-.038,8.763,.013,17.824,.026,26.735-.021,.092,0,.186,0,.278,0,9.807,0,18.264,2.752,25.848,8.411,2.315,1.728,4.711,3.423,7.027,5.062,1.026,.726,2.086,1.476,3.123,2.218,1.477-1.835,2.097-3.442,1.897-4.912-.203-1.494-1.265-2.906-3.243-4.317-4.73-3.371-9.548-6.786-14.207-10.088-7.264-5.148-14.776-10.472-22.13-15.757-2.587-1.859-5.304-2.727-8.543-2.727h-.072c-14.764,.059-29.775,.052-44.293,.046-4.538-.002-9.076-.004-13.614-.004Zm-50.055,35.825l-.046-.182c-.14-.554-.267-.995-.369-1.348-.175-.605-.291-1.004-.307-1.407-.373-9.079-.739-18.309-1.093-27.236-.234-5.894-.468-11.788-.705-17.682-.207-5.134,1.473-9.551,5.285-13.9,14.474-16.511,30.797-31.638,46.582-46.268,5.339-4.948,10.861-10.065,16.229-15.161,11.519-10.932,23.291-21.984,34.675-32.672l3.859-3.623c3.847-3.614,6.853-3.944,11.092-1.216,.874,.563,1.522,1.505,2.149,2.417,.09,.131,.179,.26,.268,.388,3.607,5.157,5.242,10.739,4.728,16.143-.518,5.446-3.213,10.596-7.792,14.894-14.637,13.739-29.605,27.615-44.079,41.035-5.296,4.91-10.592,9.82-15.884,14.733-.268,.249-.537,.499-.805,.749-1.735,1.616-3.53,3.287-5.395,4.807-4.465,3.64-8.57,7.932-8.373,14.632v.048l-.046,.009c-16.227,3.268-26.514,12.096-31.45,26.99-1.729,5.217-3.612,10.369-5.607,15.823-.926,2.532-1.884,5.151-2.853,7.851l-.064,.177Zm2.807-61.718l.043,.038c-3.792,4.326-5.462,8.717-5.257,13.82,.237,5.894,.471,11.788,.705,17.682,.354,8.927,.721,18.158,1.093,27.237,.016,.389,.13,.783,.302,1.38,.091,.315,.203,.698,.325,1.171,.948-2.639,1.884-5.199,2.789-7.676,1.994-5.453,3.878-10.605,5.606-15.819,4.945-14.922,15.246-23.772,31.489-27.056-.177-6.722,3.94-11.026,8.417-14.676,1.862-1.519,3.655-3.188,5.389-4.802,.268-.25,.536-.499,.805-.749,5.292-4.914,10.588-9.824,15.884-14.733,14.475-13.42,29.442-27.297,44.079-41.034,4.559-4.279,7.241-9.404,7.756-14.822,.511-5.376-1.117-10.932-4.708-16.067-.089-.127-.178-.257-.268-.388-.62-.902-1.261-1.835-2.116-2.385-4.184-2.692-7.152-2.366-10.952,1.202l-3.86,3.623c-11.384,10.688-23.155,21.74-34.674,32.672-5.369,5.096-10.891,10.213-16.23,15.161-15.783,14.628-32.104,29.753-46.574,46.259l-.043-.038Zm74.499,10.422h-22.047l21.075-19.088,.035,.018,.937,.468v18.602Zm-21.75-.114h21.636v-18.417l-.838-.419-20.797,18.836Zm-31.324-53.886l-.006-.118c-.03-.566-.063-1.062-.093-1.513-.056-.856-.101-1.533-.101-2.221-.009-15.928-.017-34.75-.005-53.57,.002-3.802,.942-6.533,2.793-8.115,1.847-1.58,4.684-2.086,8.433-1.499,10.889,1.702,18.637,10.654,19.279,22.276,.012,.205,.025,.438,.022,.669-.015,1.578,.099,3.236,.208,4.84,.253,3.688,.514,7.502-.762,10.636-1.219,2.996-4.125,5.358-6.934,7.641-1.161,.944-2.361,1.919-3.42,2.923-4.4,4.17-8.902,8.381-13.257,12.452-1.079,1.008-2.157,2.017-3.234,3.026-.509,.476-1.029,.927-1.687,1.496-.343,.297-.72,.623-1.147,.998l-.089,.078ZM57.412,30.789c-2.348,0-4.202,.571-5.531,1.708-1.824,1.56-2.75,4.261-2.752,8.028-.013,18.82-.004,37.641,.005,53.57,0,.684,.045,1.359,.101,2.213,.028,.42,.058,.879,.086,1.397,.391-.343,.74-.645,1.059-.921,.657-.569,1.176-1.019,1.684-1.493,1.078-1.009,2.156-2.018,3.234-3.026,4.354-4.072,8.856-8.282,13.256-12.452,1.062-1.006,2.264-1.983,3.426-2.928,2.799-2.275,5.693-4.627,6.9-7.596,1.266-3.11,1.006-6.91,.754-10.586-.11-1.606-.224-3.267-.209-4.849,.003-.227-.01-.457-.022-.661-.639-11.567-8.348-20.476-19.182-22.17-1.003-.157-1.94-.235-2.81-.235Z"/></g><g><path class="cls-1" d="M201.85,21.133c2.88-2.744,5.621-5.658,8.203-8.684,2.031-2.38,2.28-5.21,.879-8.075-1.35-2.762-3.711-3.959-7.47-4.315-1.039,.518-2.963,1.025-4.261,2.215-2.929,2.686-5.676,5.599-8.257,8.625-2.671,3.131-2.351,7.526,.43,10.231,2.91,2.83,7.378,2.955,10.476,.003Z"/><path class="cls-1" d="M196.592,23.345c-1.888,0-3.768-.725-5.258-2.174-2.875-2.796-3.062-7.228-.433-10.309,2.739-3.211,5.519-6.115,8.262-8.63,.941-.863,2.208-1.37,3.226-1.777,.39-.156,.758-.303,1.048-.448l.015-.007,.016,.002c3.963,.376,6.211,1.676,7.517,4.347,1.443,2.952,1.136,5.766-.888,8.137-2.623,3.076-5.384,5.999-8.207,8.689h0c-1.518,1.447-3.412,2.17-5.297,2.17ZM203.473,.117c-.292,.144-.656,.29-1.042,.444-1.009,.403-2.265,.906-3.191,1.754-2.74,2.512-5.516,5.413-8.253,8.62-2.589,3.035-2.405,7.399,.426,10.153,2.934,2.854,7.403,2.855,10.397,.003,2.819-2.687,5.578-5.608,8.199-8.68,1.992-2.334,2.293-5.105,.872-8.013-1.284-2.627-3.5-3.908-7.408-4.282Z"/></g><g><path class="cls-1" d="M210.121,44.148c1.105,3.209,4.372,5.548,7.791,4.875,4.213-.83,8.397-2,12.436-3.46,3.273-1.182,4.948-4.933,4.255-8.168-.755-3.528-3.786-6.063-8.734-6.141-3.338,1.035-8.092,2.165-12.552,4.009-3.21,1.328-4.356,5.52-3.197,8.884Z"/><path class="cls-1" d="M216.726,49.196c-2.881,0-5.616-1.998-6.66-5.029h0c-.576-1.673-.591-3.584-.04-5.243,.586-1.765,1.747-3.084,3.269-3.713,3.218-1.331,6.54-2.276,9.47-3.109,1.109-.315,2.156-.613,3.086-.902l.018-.003c4.691,.075,7.976,2.388,8.789,6.187,.745,3.479-1.141,7.096-4.292,8.234-4.085,1.475-8.271,2.64-12.444,3.462-.399,.078-.799,.116-1.197,.116Zm-6.552-5.066c1.169,3.394,4.487,5.476,7.726,4.838,4.168-.821,8.349-1.984,12.428-3.457,3.098-1.119,4.951-4.678,4.218-8.102-.8-3.741-4.042-6.019-8.67-6.096-.93,.288-1.974,.586-3.08,.9-2.928,.833-6.245,1.777-9.457,3.105-2.61,1.08-4.563,4.757-3.165,8.813Z"/></g><g><path class="cls-1" d="M212.721,67.566c-4.85-.977-8.916,2.527-8.93,7.301-.01,3.409,1.843,6.132,5.258,7.239,3.356,1.088,6.769,2.019,10.197,2.853,4.136,1.006,7.862-1.162,9.101-5.116,1.185-3.781-.582-7.695-4.503-9.105-3.623-1.302-7.353-2.413-11.123-3.172Z"/><path class="cls-1" d="M221.253,85.262c-.657,0-1.333-.081-2.02-.248-3.766-.915-7.103-1.849-10.201-2.853-3.377-1.096-5.308-3.754-5.298-7.294,.007-2.338,.999-4.486,2.722-5.892,1.729-1.411,3.957-1.933,6.277-1.465,3.52,.709,7.161,1.747,11.131,3.174,3.861,1.388,5.77,5.248,4.539,9.176-1.056,3.369-3.853,5.402-7.149,5.402Zm-10.164-17.805c-1.687,0-3.267,.549-4.561,1.606-1.697,1.384-2.673,3.5-2.68,5.803-.01,3.487,1.892,6.106,5.219,7.185,3.096,1.004,6.43,1.937,10.193,2.852,4.075,.991,7.785-1.098,9.033-5.077,1.212-3.868-.667-7.667-4.468-9.034-3.965-1.425-7.601-2.462-11.115-3.17h0c-.547-.11-1.089-.165-1.621-.165Z"/></g></g></g></svg>