<?xml version="1.0" encoding="UTF-8"?><svg id="Layer_2" xmlns="http://www.w3.org/2000/svg" viewBox="0 0 514.374 213.816"><defs><style>.cls-1{fill:#fc3;}</style></defs><g id="Layer_1-2"><g><path class="cls-1" d="M331.908,121.603l.004-.015c4.967-25.196,5.895-48.819,2.684-68.318-.269-1.636-.969-3.088-1.956-4.277-5.632,8.001-10.419,18.361-14.176,30.499-.12,11.968-1.523,24.992-4.209,38.614l-.003,.021h0c-2.513,12.909-5.956,25.905-10.257,38.782-.21-13.563,.431-26.994,1.934-40.079,3.405-30.252,11.722-55.717,23.453-71.752,9.059-12.561,19.861-18.795,28.92-16.667,6.977,1.627,12.695,8.171,16.143,18.064,.514-.536,1.023-1.093,1.542-1.608,4.109-4.137,8.433-7.662,12.873-10.552-5.904-12.412-15.153-20.791-26.459-23.427-16.368-3.843-34.162,5.006-47.58,23.615-13.517,18.474-23.026,46.997-26.774,80.294-2.091,18.206-2.622,37.043-1.572,56.05,.505,8.136,5.715,14.357,12.964,15.479,.759,.117,1.513,.175,2.259,.175,6.383,0,12.149-4.207,14.785-11.018,.005-.014,.008-.028,.014-.041l.009-.018c6.722-17.747,11.904-35.854,15.402-53.819Z"/><path class="cls-1" d="M383.048,137.091c.334-.921,.665-1.842,.989-2.762l.005-.018c8.346-23.744,12.518-46.507,12.064-65.828-.029-1.273-.324-2.475-.826-3.56-6.895,6.958-13.31,16.444-18.968,27.881-1.799,11.198-4.904,23.179-9.248,35.54l-.005,.012c-.302,.86-.61,1.721-.931,2.602-4.515,12.495-9.991,24.927-16.316,37.095,1.863-13.586,4.569-26.898,8.096-39.722,8.003-29.375,20.157-53.246,34.263-67.257,10.944-11.019,22.695-15.478,31.445-11.924,6.771,2.739,11.523,10.169,13.476,20.566,.635-.479,1.268-.978,1.905-1.433,4.661-3.378,9.426-6.139,14.214-8.267-3.982-13.312-11.938-23.136-22.836-27.544-15.681-6.372-34.74-.42-50.93,15.877-16.266,16.157-30.082,42.882-38.894,75.232-4.859,17.665-8.259,36.206-10.117,55.168-.737,8.112,3.473,15.058,10.476,17.286,1.475,.47,2.97,.696,4.45,.696,5.547,0,10.873-3.191,14.1-8.758l.009-.019c.008-.013,.017-.024,.025-.037,9.407-16.503,17.335-33.609,23.555-50.824Z"/><path class="cls-1" d="M227.095,122.494c-.228-2.545-.49-5.11-.784-7.672-2.769-24.55-8.677-46.675-17.086-63.982-.972-2.003-2.592-3.476-4.484-4.304-2.718,9.111-4.038,20.029-3.962,32.216,3.498,11.459,6.094,24.32,7.65,38.108,.281,2.434,.527,4.852,.743,7.25v.003c.968,10.756,1.36,21.738,1.193,32.786-4.301-12.872-7.748-25.865-10.264-38.783-5.887-29.843-5.643-56.627,.706-75.476,4.843-14.7,13.231-23.894,22.451-24.594,7.048-.55,14.412,3.955,20.63,12.324,.311-.636,.609-1.291,.93-1.911,2.67-5.251,5.737-9.968,9.11-14.092C244.623,4.381,233.361-.775,221.883,.102c-16.704,1.269-30.973,15.066-38.148,36.85-7.316,21.716-7.774,51.778-1.294,84.626,3.502,17.976,8.69,36.094,15.443,53.913,2.636,6.811,8.401,11.015,14.784,11.015,.746,0,1.502-.057,2.261-.175,7.247-1.122,12.457-7.344,12.961-15.481,0-.011,0-.022,0-.034,0-.01,.004-.019,.004-.029,.893-16.245,.625-32.492-.797-48.288v-.006Z"/><path class="cls-1" d="M268.95,42.421c-4.325,8.798-7.456,19.79-9.3,32.377,1.683,11.8,2.275,24.826,1.707,38.634-.077,1.976-.173,3.938-.288,5.885v.002c-.659,11.196-1.968,22.541-3.889,33.869-2.264-13.333-3.673-26.658-4.185-39.771-1.254-30.401,3.068-56.837,12.195-74.493,7.011-13.787,16.71-21.611,25.904-20.882,7.077,.535,13.664,6.107,18.538,15.327,.409-.588,.81-1.196,1.227-1.766,3.436-4.765,7.188-8.932,11.15-12.493C314.328,7.798,303.973,.969,292.468,.098c-16.688-1.285-32.893,10.173-43.29,30.615-10.515,20.336-15.544,49.971-14.164,83.425,.712,18.302,3.064,36.999,7.001,55.631,1.741,7.969,7.837,13.322,15.167,13.322h.003c7.33-.002,13.424-5.356,15.164-13.326,.004-.016,.004-.032,.008-.047l.003-.011c3.468-16.422,5.715-33.019,6.673-49.329h0c.121-2.065,.224-4.145,.305-6.223,1.051-25.55-1.606-48.956-7.683-67.688-.53-1.634-1.49-3.005-2.706-4.047Z"/><path class="cls-1" d="M19.28,64.884c-9.053,5.454-15.22,14.528-17.832,26.241-5.108,22.892,3.475,53.947,22.959,83.073,1.735,2.594,4.584,3.996,7.487,3.996,1.719,0,3.459-.492,4.995-1.52,4.132-2.763,5.24-8.351,2.476-12.482-16.549-24.74-24.349-51.237-20.353-69.149,1.539-6.89,4.752-11.851,9.567-14.752,6.378-3.857,15.265-3.254,24.792,1.409-.002-.801-.02-1.613-.002-2.402,.098-5.775,.769-11.223,1.925-16.301-13.093-4.794-25.825-4.276-36.013,1.887Z"/><path class="cls-1" d="M141.296,193.499c-.003-.012-.004-.025-.008-.037-2.271-8.863-4.899-17.584-7.845-26.115-3.171-9.178-6.713-18.136-10.618-26.792-10.248-22.861-22.846-42.298-36.431-56.208-1.453-1.489-3.301-2.328-5.215-2.59,.03,9.228,1.841,19.66,5.316,30.844,7.222,10.124,13.965,22.058,19.917,35.335,2.03,4.499,3.946,9.092,5.769,13.75,3.169,8.098,6.002,16.427,8.518,24.912-8.342-11.198-15.837-22.808-22.356-34.645-14.712-26.56-22.553-52.17-22.077-72.172,.265-15.608,5.672-27.049,14.475-30.61,6.724-2.733,15.231-.706,23.785,5.388,.111-.738,.206-1.489,.333-2.213,.975-5.78,2.479-11.136,4.42-16.033-12.019-6.733-24.469-8.223-35.302-3.819-15.704,6.353-25.314,23.917-25.704,46.921-.551,23.087,8.089,51.945,24.315,81.239,8.834,16.042,19.358,31.695,31.326,46.579,3.497,4.28,8.26,6.582,13.024,6.582,2.253,0,4.506-.515,6.624-1.577,6.597-3.308,9.706-10.832,7.736-18.723l-.005-.017Z"/><path class="cls-1" d="M183.926,178.722v-.024c-1.66-16.911-4.572-33.593-8.654-49.582l-.005-.017c-.467-1.828-.953-3.663-1.453-5.485-6.669-24.464-16.204-45.822-27.576-61.764-1.088-1.525-2.565-2.606-4.2-3.21-1.44,9.46-1.171,20.54,.73,32.694,5.337,10.904,9.972,23.396,13.689,37.033,.478,1.737,.935,3.466,1.376,5.189l.002,.012c2.859,11.196,5.107,22.759,6.721,34.511-6.334-12.18-11.813-24.618-16.334-37.125-10.403-28.559-14.239-55.068-10.789-74.704,2.582-15.306,9.538-25.707,18.621-27.827,6.964-1.631,14.953,1.691,22.394,9.017,.213-.684,.411-1.385,.637-2.055,1.848-5.61,4.16-10.715,6.84-15.288-10.749-8.462-22.705-11.843-33.974-9.196-16.373,3.82-28.434,19.654-32.255,42.295-3.977,22.637,.149,52.439,11.607,83.896,6.225,17.22,14.156,34.325,23.603,50.897,3.229,5.566,8.554,8.756,14.101,8.755,1.479,0,2.976-.228,4.453-.697,7.004-2.23,11.211-9.178,10.471-17.289-.001-.013-.004-.024-.005-.037Z"/><path class="cls-1" d="M495.077,64.851c-14.675-8.867-34.594-6.079-53.229,7.426-18.706,13.36-36.575,37.601-50.307,68.238-7.544,16.734-13.756,34.542-18.478,52.985-1.965,7.891,1.146,15.415,7.743,18.72,2.119,1.062,4.37,1.575,6.621,1.575,4.764,0,9.529-2.302,13.026-6.583,.005-.007,.009-.014,.014-.021,.01-.012,.021-.022,.031-.034,11.917-14.828,22.44-30.483,31.273-46.529l.011-.023c13.574-24.53,21.816-48.532,23.836-69.413,.02-.206,.022-.409,.028-.613-.137,.098-.274,.182-.412,.281-7.872,5.624-15.66,13.803-23.006,24.018-3.766,11.881-9.253,24.482-16.213,37.053h0l-.01,.018c-6.516,11.838-14.028,23.454-22.377,34.663,3.956-13.381,8.756-26.359,14.326-38.718,12.454-27.786,28.206-49.439,44.402-61.008,12.638-9.157,25.129-11.636,33.427-6.624,8.366,5.036,12.12,17.36,10.038,33.013-1.971,15.423-9.327,33.256-21.275,51.572-2.716,4.163-1.542,9.738,2.62,12.452,4.165,2.715,9.738,1.543,12.452-2.62,13.422-20.578,21.74-41.022,24.049-59.077,3.05-22.934-3.905-41.909-18.591-50.75Z"/></g></g></svg>