<?xml version="1.0" encoding="UTF-8"?><svg id="Layer_2" xmlns="http://www.w3.org/2000/svg" viewBox="0 0 495.284 495.284"><defs><style>.cls-1{fill:#9c6;}</style></defs><g id="Layer_1-2"><path class="cls-1" d="M247.642,0C111.092,0,0,111.092,0,247.642s111.092,247.643,247.642,247.643,247.643-111.093,247.643-247.643S384.192,0,247.642,0Zm119.208,377.455c12.318-35.759,19.348-76.684,20.316-119.539h87.327c-2.361,52.743-22.784,100.864-55.235,138.298-16.97-7.351-34.527-13.633-52.409-18.759Zm-290.825,18.759c-32.451-37.434-52.874-85.556-55.235-138.298H108.117c.968,42.855,7.998,83.779,20.316,119.538-17.879,5.125-35.437,11.408-52.408,18.76ZM128.433,117.829c-12.318,35.759-19.348,76.684-20.316,119.539H20.791c2.361-52.743,22.784-100.864,55.236-138.299,16.973,7.353,34.531,13.635,52.407,18.759Zm108.935,119.539h-108.705c.971-41.22,7.79-80.401,19.696-114.345,29.091,6.823,58.946,10.621,89.008,11.327v103.018Zm0,20.548v103.018c-30.06,.705-59.914,4.503-89.009,11.326-11.906-33.944-18.725-73.124-19.696-114.344h108.705Zm20.548,0h108.705c-.971,41.22-7.789,80.4-19.696,114.345-29.092-6.823-58.946-10.621-89.009-11.327v-103.018Zm0-20.548v-103.018c30.06-.705,59.914-4.504,89.008-11.328,11.907,33.944,18.726,73.125,19.697,114.346h-108.705Zm0-123.571V21.422c26.854,4.502,52.179,26.568,72.196,63.293,3.294,6.043,6.359,12.395,9.234,18.974-26.642,6.046-53.942,9.432-81.431,10.109Zm-20.548-92.375V113.797c-27.49-.677-54.792-4.063-81.431-10.108,2.875-6.579,5.94-12.931,9.235-18.974,20.018-36.725,45.342-58.79,72.196-63.293Zm0,360.064v92.376c-26.854-4.502-52.178-26.568-72.196-63.292-3.294-6.044-6.36-12.397-9.235-18.976,26.643-6.045,53.944-9.431,81.431-10.108Zm20.548,92.376v-92.376c27.489,.677,54.792,4.063,81.431,10.108-2.875,6.579-5.941,12.932-9.235,18.976-20.018,36.724-45.342,58.789-72.196,63.292Zm129.251-236.494c-.968-42.856-7.999-83.78-20.316-119.539,17.874-5.122,35.432-11.406,52.408-18.76,32.452,37.434,52.875,85.556,55.236,138.299h-87.327Zm16.909-154.199c-14.513,5.965-29.43,11.134-44.584,15.406-3.485-8.249-7.246-16.188-11.338-23.695-9.564-17.546-20.37-32.211-32.094-43.793,33.295,10.542,63.296,28.559,88.016,52.082Zm-256.945-8.289c-4.092,7.507-7.853,15.447-11.338,23.696-15.156-4.273-30.072-9.442-44.583-15.407,24.72-23.523,54.721-41.54,88.016-52.082-11.724,11.582-22.53,26.247-32.095,43.793Zm-55.922,337.234c14.51-5.963,29.427-11.133,44.584-15.406,3.485,8.249,7.246,16.189,11.338,23.696,9.564,17.546,20.371,32.211,32.095,43.793-33.295-10.542-63.296-28.559-88.016-52.083Zm256.945,8.29c4.092-7.507,7.853-15.447,11.338-23.696,15.16,4.274,30.076,9.443,44.585,15.407-24.72,23.523-54.722,41.54-88.017,52.083,11.724-11.582,22.53-26.247,32.094-43.793Z"/></g></svg>