<?xml version="1.0" encoding="UTF-8"?><svg id="Layer_1" xmlns="http://www.w3.org/2000/svg" viewBox="0 0 285 84"><defs><style>.cls-1{fill:#f5893e;}.cls-2{fill:#fcb841;}.cls-3{fill:#06b3dc;}.cls-4{fill:#95c94f;}</style></defs><path class="cls-3" d="M151.648,15.404h49.693c8.651,2.338,11.779,8.62,11.967,16.825,.147,6.399,.148,12.807,.004,19.206-.185,8.211-3.279,14.521-11.971,16.835h-49.693V15.404Zm29.471,10.465q-17.608,0-17.606,17.324c0,3.228,.163,6.465-.019,9.683-.216,3.813,1.424,5.18,5.203,5.083,7.089-.184,14.186-.004,21.28-.056,10.782-.08,11.457-.724,11.467-11.64,.022-23.136,1.693-20.215-20.324-20.393Z"/><path class="cls-3" d="M93.081,68.27h-10.648V15.404h49.693c10.709,4.8,12.401,7.765,10.759,22.419-1.845,16.468-16.269,10.925-26.997,13.56,9.667,6.072,18.276,11.48,26.886,16.888h-19.522c-4.612-3.018-9.142-6.171-13.859-9.017-4.912-2.963-11.028-9.884-14.498-7.845-4.647,2.73-1.141,11.014-1.813,16.861Zm17.136-26.713v-.09c4.721,0,9.442,.068,14.161-.018,5.582-.102,7.681-3.144,7.577-8.522-.1-5.19-2.454-7.364-7.583-7.309-8.555,.091-17.122,.197-25.664-.17-5.019-.215-5.483,2.149-5.786,6.302-.52,7.112,.825,11.431,9.342,9.879,2.569-.468,5.298-.072,7.953-.072Z"/><path class="cls-3" d="M222.637,15.404h10.648v25.433c10.62-9.512,19.508-17.472,28.396-25.433,4.733,0,9.465,0,14.198,0-6.142,8.717-15.262,14.3-23.09,21.202-4.434,3.911-3.884,5.716,.194,9.184,8.472,7.206,16.475,14.954,24.671,22.48-5.324,0-10.648,0-15.973,0-8.883-8.193-17.765-16.386-28.396-26.191v26.191h-10.648c-1.148-17.622-1.148-35.244,0-52.867Z"/><path class="cls-3" d="M71.785,15.404c1.704,8.488-1.79,10.761-10.286,10.472-17.846-.607-35.734-.004-53.605,.102V15.404c21.297,0,42.594,0,63.89,0Z"/><path class="cls-2" d="M7.894,29.502c18.904,.009,37.809-.012,56.713,.055,3.328,.012,7.164-1.103,7.349,4.735,.189,5.952-3.272,5.723-7.351,5.716-18.904-.032-37.808,.035-56.712,.067v-10.573Z"/><path class="cls-4" d="M7.894,43.599c18.904,.051,37.809,.141,56.713,.124,4.088-.004,7.516-.224,7.348,5.721-.167,5.903-4.056,4.677-7.343,4.689-18.906,.07-37.812,.038-56.718,.04v-10.573Z"/><path class="cls-1" d="M7.894,57.697c17.834,.125,35.68,.69,53.495,.181,8.252-.236,12.243,1.658,10.395,10.392-17.747,0-35.529-.648-53.228,.267-9.183,.475-12.667-1.801-10.662-10.84Z"/></svg>